<svg xmlns="http://www.w3.org/2000/svg" viewBox="0 0 468.68 478.32">
  <defs>
    <style>
      .cls-1 {
        fill: none;
        stroke-width: 1.23px;
      }

      .cls-1, .cls-2 {
        stroke: #da7b86;
        stroke-miterlimit: 10;
      }

      .cls-2, .cls-3 {
        fill: #da7b86;
      }
    </style>
  </defs>
  <title>Ativo 3</title>
  <g id="Camada_2" data-name="Camada 2">
    <g id="Camada_1-2" data-name="Camada 1">
      <ellipse class="cls-1" cx="239.01" cy="236.08" rx="194.52" ry="194.72"/>
      <g>
        <path class="cls-2" d="M182.84,378.72c-6.48,8.66-5.4,24.95-.78,34.13,5.06,10,15.37,17.8,26.9,16.29,2-.26.29-2.65-.82-2.9-10.9-2.44-18.58-6.32-23.17-17-4.11-9.55-2.05-19.84-1.37-29.92,0-.43-.34-1.16-.76-.6Z"/>
        <path class="cls-2" d="M182.75,379.69c21,8.34,32.84,25.55,24.47,48.1-.25.67.62,2.53,1.5,1.83,10.39-8.28,6.4-26.2-.39-35.72-4.82-6.76-16.63-16.72-25.61-15.83-.68.07-.46,1.42,0,1.62Z"/>
        <path class="cls-2" d="M182.37,380.22c11.24,13.26,23.13,28.75,24.34,47.08.11,1.74,3.48,2.85,3.32.79-1.37-18.13-12.74-38.25-27.19-48.93-.56-.42-.75.73-.47,1.06Z"/>
      </g>
      <g>
        <path class="cls-2" d="M92.85,294.47c-20,7.06-34.6,43.08-11.62,55.32,1.35.72,2.55-.38,1.68-1.75-6.52-10.29-11.09-18.08-7-30.13,3.18-9.31,11.06-15.05,17.3-22.26.28-.32.23-1.4-.39-1.18Z"/>
        <path class="cls-2" d="M92.44,295.05c9.6,19.21,10,42.54-12,52.95-1.07.51,0,2.32,1,2.27,24.93-1.4,27.92-42.67,11.82-56.23-.66-.56-1,.47-.78,1Z"/>
        <path class="cls-2" d="M91.8,295.23c-.13,17.34-.84,37.36-11.47,52.28-1.08,1.51,1.79,3.71,2.85,2.2,10.45-14.9,14-37.39,9.46-54.7-.2-.75-.84-.42-.84.22Z"/>
      </g>
      <g>
        <path class="cls-2" d="M99.52,158.21c-9.13-4.56-23.18-3.5-32,.87-9.85,4.84-20.13,16.78-16.07,28.36.41,1.18,2.45,1.9,2.82.33,2.33-9.87,3.53-17.82,12.88-23.71,10.13-6.39,21-4.93,32.38-4.55.61,0,.42-1.11,0-1.3Z"/>
        <path class="cls-2" d="M99.16,158c-3.6,7.21-6,14.7-11.76,20.66C77.84,188.58,64.62,191.4,52,186c-1.21-.53-1.29,1.1-.73,1.77,7.34,8.83,23.86,4.65,32.14-.47s19-18.22,16.8-28.85c-.11-.54-.75-1.06-1.09-.39Z"/>
        <path class="cls-2" d="M98.59,157.81c-7.59,6.23-13.07,13-22,17.86-7.77,4.25-15.75,8.89-24.65,10.06-2,.26-.11,3.24,1.6,3,16.93-2.27,37.5-14.81,45.62-29.93.2-.36,0-1.46-.58-1Z"/>
      </g>
      <g>
        <path class="cls-2" d="M209,84.08C207.93,62.87,175.54,41,158.36,58.85c-1.09,1.13.85,3.09,2.1,2.5,11-5.16,21.65-6.59,32,1.37,7.14,5.46,11.55,13.94,15.74,21.73.31.59.81.15.79-.37Z"/>
        <path class="cls-2" d="M208.8,83.31c-22.36,4.27-41.4.85-48.64-24.24-.18-.63-1.46-1.69-1.82-.61-4.2,12.66,11,25.26,21.78,28.78,7.59,2.48,23.26,4,29.28-2.43.38-.41.07-1.63-.6-1.5Z"/>
        <path class="cls-2" d="M208.75,82.7c-10.13-2.47-18.73-4.08-27.94-9.16-7.22-4-14.67-7.92-20.06-14.31-1.34-1.59-3.94-.25-2.4,1.54C169.8,74.12,191.21,84.44,208.7,84c.55,0,.52-1.18.05-1.29Z"/>
      </g>
      <g>
        <path class="cls-2" d="M335.61,106.58c6.79-9.66,4.6-27-1.5-36.38-5.64-8.7-15.39-15-26-13.31-1.91.31-.36,2.68.82,2.9C320.47,61.93,328.28,66,333,77.3c3.9,9.26,2.24,18.9,1.81,28.68,0,.4.34,1.19.76.6Z"/>
        <path class="cls-2" d="M335.71,105.61c-9.33-3.46-18.73-8.58-24-17.31-6.18-10.17-5.14-19.42-1.81-30.07.2-.66-.58-2.53-1.5-1.83-9.77,7.51-5.9,24.62-.11,33.59,4.9,7.61,17.68,18.52,27.49,17.23.67-.09.47-1.43,0-1.61Z"/>
        <path class="cls-2" d="M336.07,105.07c-6.45-7.21-12.42-13.1-16.76-21.86-3.85-7.76-8.09-15.72-8.92-24.48-.16-1.73-3.53-2.84-3.32-.79,1.87,18,13.71,37.91,28.53,48.18.57.4.76-.72.47-1.05Z"/>
      </g>
      <g>
        <path class="cls-2" d="M397.24,197c19.78-7.58,33.36-44,10.09-55.61-1.32-.66-2.62.35-1.68,1.74,6.75,10,11.85,17,7.86,29.9-2.92,9.41-10.63,15.39-16.67,22.79-.26.32-.24,1.42.4,1.18Z"/>
        <path class="cls-2" d="M397.56,196.28c-10.28-19-11.06-42,10.53-53.09,1-.53,0-2.34-.95-2.27-24.85,2-26.79,43.41-10.27,56.55.82.65,1-.68.69-1.19Z"/>
        <path class="cls-2" d="M398.28,196.26c-.41-17.56-.36-37.18,10-52.55,1-1.54-1.84-3.74-2.85-2.21-10.05,15.24-13,37.68-7.94,55,.21.71.86.43.84-.23Z"/>
      </g>
      <g>
        <path class="cls-2" d="M369.52,314c8.53,7.07,23,9.27,33.44,6.26,9.84-2.84,21.35-11.59,20.36-22.92-.1-1.16-2.17-2.45-2.84-1.05-5.22,11-9.74,18.33-22.26,20.9-9.88,2-19.06-1.44-28.44-4.41-.62-.2-.58,1-.26,1.22Z"/>
        <path class="cls-2" d="M369.83,314.3c13.56-16.82,30.42-31.66,52.43-15.84,1.05.76,1.6-.44,1.16-1.35-5.36-11.08-23.9-10.34-33.52-6.52-8.74,3.48-20.34,12.83-21.1,22.94,0,.47.57,1.34,1,.77Z"/>
        <path class="cls-2" d="M370.32,314.65c8.85-4.6,15.88-9.54,25.75-12.15,8.51-2.26,17.33-4.76,26.2-3.79,2.21.24.94-2.93-.82-3.12-17.09-1.8-39.74,5.33-51.53,17.88-.27.29-.18,1.48.4,1.18Z"/>
      </g>
      <g>
        <path class="cls-2" d="M285,382.27c2.62,20.74,36.22,41.15,52.13,22,.95-1.15-.81-3.21-2.11-2.5C323.54,408,312,409.62,300.73,401c-6.21-4.71-11-12.66-15.05-19.28-.31-.5-.76.14-.71.51Z"/>
        <path class="cls-2" d="M285.18,383.06c8.15-2,16.12-4.42,24.65-3.07,13.78,2.16,21.1,11.69,25.51,24,.2.56,1.52,1.75,1.83.62,3.25-12.05-10.9-23.18-21.1-26.62-7.92-2.67-25.52-3.85-31.49,3.58-.33.41-.09,1.68.6,1.5Z"/>
        <path class="cls-2" d="M285.28,383.66c9.52,1.7,18.36,2.58,27.3,6.72,7.78,3.61,16.09,7.2,22.13,13.46,1.43,1.49,4.05.15,2.4-1.53-12.25-12.51-34.5-21.62-51.78-19.95-.52.05-.54,1.21-.05,1.3Z"/>
      </g>
      <g>
        <path class="cls-2" d="M64.61,392.17C71.5,385.1,81.47,379.59,91.43,379c10.7-.63,17.22,5.24,25.75,10.2,1.22.7,1.75-.63,1.17-1.59C108,370.55,71.21,371.3,64.11,391.38c-.09.25.08,1.22.5.79Z"/>
        <path class="cls-2" d="M64.42,392.36C69.7,400.58,84,404.21,93,404.79s27.06-3.94,26.89-15.47c0-.65-1.29-2-1.83-1.11-11,18.63-38,15.7-53,3.08-.69-.59-1,.56-.68,1.07Z"/>
        <path class="cls-2" d="M65.16,392.12c13.56,6.2,41.53,7.44,54.31-2.07.75-.55-.1-2.12-1-1.9-9.78,2.42-18.31,4.86-28.53,5.06-8.52.17-16.38-1.24-24.73-2.54-.77-.12-.62,1.21-.09,1.45Z"/>
      </g>
      <g>
        <path class="cls-2" d="M1.17,229.59c8.84-1.33,18.67-.17,26.49,4.36a31.13,31.13,0,0,1,11.63,12C41.68,250.4,41.81,255,44,259.4c.44.87,1.89,1.65,2.11.19,1.64-10.61-6.07-21.26-14.52-26.86C24.37,227.92,9.2,223.09,1,228.52c-.28.18-.26,1.13.18,1.07Z"/>
        <path class="cls-2" d="M.83,229.11c-2.47,9.59,9.63,23.95,16.52,29.25,6.18,4.76,22.89,11.74,29,3.41.62-.85-.4-2.56-1.46-2.06-20.14,9.43-38.57-12.85-43-30.57-.15-.58-.84-.64-1,0Z"/>
        <path class="cls-2" d="M1.57,229.7C5.1,238,13,244,20.06,249.34c7.29,5.51,16.32,11.59,25.63,12.52,1.12.12.46-1.79-.18-2.05-8.68-3.53-16.57-7-24.12-12.66C14,241.63,8.48,235.34,2.24,228.72c-.62-.66-.85.54-.67,1Z"/>
      </g>
      <g>
        <path class="cls-2" d="M82,66c8,7.63,12,20.62,10.13,31.47-1.52,8.83-7.18,13.15-11.41,20.34-.54.92.57,2.76,1.69,2.09,10.48-6.32,15.61-19.46,13.64-31.42-1.34-8.12-6-19.63-13.75-23.53-.5-.25-.55.81-.3,1Z"/>
        <path class="cls-2" d="M81.73,65.11c-16.43,7.5-23.55,51.63-1,56.12,1.47.29.68-1.91,0-2.3C61.21,108,71.88,79.75,82.35,66.47c.34-.42.1-1.68-.62-1.36Z"/>
        <path class="cls-2" d="M82.05,65.79c-8.79,13-10.21,40.82-2,54.78.54.93,1.46.4,1.36-.53-.85-8.07-3-15.28-2.83-23.6.19-10.37,2.62-19.75,4.37-29.85.09-.5-.37-1.55-.87-.8Z"/>
      </g>
      <g>
        <path class="cls-2" d="M263.67,2.41c-.17,9.51-5.41,20.53-12.43,26.84A32.22,32.22,0,0,1,237.5,36.8c-4.19,1-8.34.29-12.51,1.07-1.25.24-.38,2.2.44,2.43,11.13,3.15,24-2.34,31.2-11,5.49-6.57,10.83-18.69,7.74-27.22-.2-.57-.69-.13-.7.29Z"/>
        <path class="cls-2" d="M263.77,1.78c-9.11-4-25.41,4.37-32.23,10.25S216.32,31.55,223.18,40c.6.73,1.77.48,1.62-.58-3.11-22,19.56-35,38.93-36.12.62,0,.48-1.3,0-1.49Z"/>
        <path class="cls-2" d="M263.54,2.39C253.33,4.09,244.32,12.26,237,19.1c-5.21,4.83-12.8,12.23-13.94,19.61-.09.53.62,2.23,1.34,1.42,4.89-5.53,8.23-12.05,13.57-17.31,2.36-2.33,4.91-4.49,7.44-6.64,5.8-4.92,12.5-7.8,18.48-12.37.38-.29.39-1.54-.3-1.42Z"/>
      </g>
      <g>
        <path class="cls-2" d="M417.27,95.43c-8.21,4.73-18.36,7.24-27.71,5.61-12.08-2.12-15.74-9.54-23.6-17.13-.69-.67-2-.44-1.69.73,2.48,10.4,13.51,17.3,23.37,19.44,9.08,2,24.29.59,30-7.69.15-.22.1-1.23-.36-1Z"/>
        <path class="cls-2" d="M417.53,95.38c-2.65-10-18.15-18.59-27.52-20.83-7.62-1.82-24-1.44-26.66,8.12-.24.88.82,2.63,1.78,1.67,15.36-15.51,40.77-3.85,51.53,11.79.56.8,1-.13.87-.75Z"/>
        <path class="cls-2" d="M416.72,95.37c-11.67-9.92-37.47-18.23-52.81-13-.93.32-.23,2.05.59,2.06,19.34.24,34.44,3.83,51.87,12.26.77.37.78-1,.35-1.33Z"/>
      </g>
      <g>
        <path class="cls-2" d="M465,266.52c-10.32-1.93-20.23-8.08-25.51-17.23a30.35,30.35,0,0,1-4.24-14.15c-.15-4,.88-7.63.36-11.6-.09-.67-1.49-2.09-2-1-5,9.63-2.19,21.83,4,30.32,5.3,7.26,18,16.89,27.49,14.84.46-.1.33-1-.09-1.13Z"/>
        <path class="cls-2" d="M465.38,267.28c6.06-8.36-.21-25.37-4.92-33s-16.92-18.45-26.41-13.64c-1.07.54.07,2.41,1,2.3,22.42-2.56,30.57,26.14,29.39,43.59,0,.38.49,1.33.9.76Z"/>
        <path class="cls-2" d="M464.88,266.71c-.21-10.24-6.78-20.13-12.36-28.37-4.49-6.64-10.34-13.84-17.61-17.51-1.1-.56-1.26,1-.63,1.65,5.44,5.17,10.87,9.9,15.25,16.1,6.29,8.92,10.13,18.49,14.48,28.41.24.56.88.25.87-.28Z"/>
      </g>
      <g>
        <path class="cls-2" d="M370.5,422.4c-6.25-8.84-7.63-22.74-3.67-32.85,3.27-8.36,9.61-11.76,15.4-17.89.69-.73-.5-2.55-1.44-2.19-11.56,4.42-19.17,15.86-19.66,28.22-.34,8.33,2.11,20.14,8.9,25.61.48.39.68-.6.47-.9Z"/>
        <path class="cls-2" d="M370.67,423.27C388,419,404.24,377.4,382.74,368.54c-1.46-.6-1.16,1.46-.48,2.07,16.42,14.82,1.29,40.08-12,51.16-.39.32-.35,1.68.38,1.5Z"/>
        <path class="cls-2" d="M370.49,422.59c10.84-10.85,18.34-38.35,12.85-53.22-.33-.87-1.41-1.06-1.52,0-.94,8.71-.29,16.84-2.36,25.54-2.25,9.5-6.35,17.72-9.75,26.74-.16.42.28,1.44.78.93Z"/>
      </g>
      <g>
        <path class="cls-2" d="M208,469.51c-.17-9.19,4.45-19.77,10.67-26.35a32.06,32.06,0,0,1,13.23-8.53c4.49-1.42,9.08-.79,13.59-1.81,1.21-.27.42-2.21-.45-2.43-10.51-2.61-22.2,2.38-29.34,10.16-6.09,6.62-12,20.16-8.4,29.24.21.55.71.16.7-.28Z"/>
        <path class="cls-2" d="M208,470.18c9.37,3.79,25.47-5.43,32-11.56s14.25-19.82,7.25-27.95c-.6-.69-1.8-.51-1.62.58,3.79,22-18.37,35.58-37.73,37.38-.74.07-.38,1.36.1,1.55Z"/>
        <path class="cls-2" d="M208.1,469.51c9.89-1.93,18.24-10,25.26-16.78,5.44-5.24,13.16-13.19,14.13-21.05.06-.53-.81-1.86-1.38-1.17-4.71,5.66-7.84,12.3-13,17.71-2.29,2.41-4.76,4.65-7.22,6.88-5.61,5.08-12.42,8.34-18.2,13.08-.35.29-.16,1.44.41,1.33Z"/>
      </g>
      <g>
        <path class="cls-2" d="M141.45,352.57c-3.27-8.11-18.59-6-19.08,3-.75,13.79,20.35,14,29.28,14.88,2,.19,1.15-2.76-.36-3-7.6-1.42-17,.16-23.21-5.67-8.52-8,6.19-14.55,12.63-8.3.55.53.94-.35.74-.84Z"/>
        <path class="cls-2" d="M141.17,352.87c1-4.18,2.17-12.09,8.45-11.14a8.17,8.17,0,0,1,6.29,6.55c.31,2.72-.54,5.08-1.41,7.62-1.36,4-4.7,9.11-3.33,13.26.21.64,1,1.06,1.43.44,1.57-2.09,2.16-5.41,3.09-7.89a47.73,47.73,0,0,0,2.93-8.84c.74-4.3-.54-9.95-4.35-12.52-8.28-5.6-17.11,4.46-13.44,12.65.1.22.3,0,.34-.13Z"/>
        <path class="cls-2" d="M151.23,368.73c-3.92-1.47-9.19,2.71-9.85,6.5-.1.57.15,1.49.87,1.53a15.27,15.27,0,0,0,7.9-1.57c1.77-1,3.8-3.63,2.45-5.7a.17.17,0,0,0-.24,0c-.7.61-.6,1.7-1.21,2.44a7.13,7.13,0,0,1-2.91,1.92,15.44,15.44,0,0,1-6.28.94l.87,1.52a6.78,6.78,0,0,1,3.93-4.77c1.41-.73,3.21-.76,4.51-1.56.36-.23.42-1,0-1.21Z"/>
        <path class="cls-2" d="M162.06,364.11c-2.25-1.6-5.44-.42-7.46,1-1.56,1.12-3.59,3.09-3,5.18a.2.2,0,0,0,.21.14c.64-.16.74-.65,1.08-1.2a9.16,9.16,0,0,1,2.71-2.8c2-1.33,4.06-1.41,6.31-1.76.21,0,.31-.47.14-.59Z"/>
        <path class="cls-2" d="M161.63,364.16c-1.41,1.68-2.14,3.25-4.27,4.26a8.74,8.74,0,0,1-6.13.28c-.75-.18-.67,1.16-.18,1.43,4.5,2.48,9.72-1.07,11.14-5.4.11-.34-.19-1-.56-.57Z"/>
      </g>
      <g>
        <path class="cls-2" d="M76.12,234.65c3.46-7.74-9-16-15.47-11.43-12.06,8.45,5.48,25.05,11.47,30.88a1.37,1.37,0,1,0,2-1.82c-4.61-6-11.21-9.89-13.4-17.73-1.43-5.12,1.57-11.17,7.55-9.11a10.82,10.82,0,0,1,6.88,8.8c.06.41.64,1.06.92.41Z"/>
        <path class="cls-2" d="M75.73,234.43c4.21-2.21,6.32-6.39,11.74-4.14,8.09,3.36,2.29,11.46-2.37,14.33-3.4,2.09-11.13,4.28-12.45,8.3-.21.64.44,1.79,1.21,1.53,2.79-1,5.49-3,8.1-4.41a56.33,56.33,0,0,0,6.48-3.76c3.69-2.69,7-7.73,5.62-12.5-2.58-9-16.65-9.1-18.53.35,0,.12,0,.39.2.3Z"/>
        <path class="cls-2" d="M72.86,252.85c-2.37-3.49-8.67-4-11.82-1.5-.43.35-.26,1.24.1,1.58a15.64,15.64,0,0,0,7.23,4.15c2.1.43,4.73-.16,5.12-2.56,0-.16,0-.44-.24-.41-.76.12-1.2.64-1.91.89a6.11,6.11,0,0,1-3.71-.06A14.43,14.43,0,0,1,62,251.53l.09,1.57a7,7,0,0,1,6.28-1c1.51.39,2.71,1.32,4.15,1.8.55.19.55-.77.37-1.05Z"/>
        <path class="cls-2" d="M84.16,256.45c-.86-2.47-3.55-3.7-6-4.06-1.82-.26-5.11-.36-5.77,1.79-.05.16-.08.44.13.5.8.25,1.33-.13,2.12-.34a8.91,8.91,0,0,1,3.74-.19c2.2.33,3.74,1.51,5.47,2.77.23.16.35-.33.3-.47Z"/>
        <path class="cls-2" d="M83.74,256.17c-2.07.29-3.5,1-5.71.53a8,8,0,0,1-5.18-3.88c-.48-.74-.91.49-.72.93A8.19,8.19,0,0,0,84,257.19c.33-.21.29-1.09-.21-1Z"/>
      </g>
      <g>
        <path class="cls-2" d="M149.33,107.05c9.36-2.51,5.83-18.78-3.22-19.35C133,86.88,132,106.94,131.34,115.79c-.11,1.44,2.75,3,3.21,1.2,1.9-7.26.71-14.62,4.82-21.4,2.37-3.91,8.35-7.39,11.29-2,2.08,3.83.69,8.82-1.77,12.08-.23.31-.21,1.53.44,1.36Z"/>
        <path class="cls-2" d="M149.17,106.57c4.8,1.46,10.39,1.07,10.81,7.24.47,6.92-6.82,8.43-12.22,6.91-4.44-1.26-10.49-5.89-15.21-4.91-.82.17-.31,1.69.2,1.94,6.89,3.32,24.77,12.13,29.42,1.34,3.1-7.19-5.48-17.9-13-13-.14.08-.25.45,0,.52Z"/>
        <path class="cls-2" d="M132.81,116.5c1-1.92-.31-5-1.32-6.64a8,8,0,0,0-5.32-4c-.39-.07-.6.43-.61.72a16.29,16.29,0,0,0,1.34,8.1c.66,1.37,3.6,5,5.26,3,.13-.17.18-.5,0-.64-.78-.59-1.77-.56-2.57-1.17a6,6,0,0,1-1.77-2.68,14.64,14.64,0,0,1-.74-6l-.61.72c4.22.83,4.63,5.19,5.71,8.52a.34.34,0,0,0,.64.1Z"/>
        <path class="cls-2" d="M137.33,127.18c1.37-1.88.56-4.73-.39-6.61-.62-1.23-3.52-5.55-5.25-4.17a.5.5,0,0,0-.13.63,6.52,6.52,0,0,0,1.81,1.39,8.21,8.21,0,0,1,2.43,2.68A10.62,10.62,0,0,1,137,127c0,.22.17.37.33.15Z"/>
        <path class="cls-2" d="M137.25,126.44c-1.31-1.07-2.71-1.7-3.67-3.18-1.42-2.22-1.36-4.39-.7-6.84.12-.45-.36-1.63-.82-.85-2.53,4.28.38,10.38,4.84,11.86.48.16.65-.75.35-1Z"/>
      </g>
      <g>
        <path class="cls-2" d="M127.24,433.51c-9.23-2.21-15.43,12.48-7.57,17.9,10.9,7.52,22.21-8.15,28-15.37,1.16-1.47-1.51-3.43-2.8-2.21-5.17,4.87-8.17,11-14.67,14.54-5.37,3-12.87.9-10.38-6.27a11.7,11.7,0,0,1,7.66-7.15c.53-.18.28-1.32-.19-1.44Z"/>
        <path class="cls-2" d="M127.31,434c-1.88-1.95-4.93-3.31-6-5.94-1.86-4.58,1.54-8.26,5.31-9.16,4.22-1,7.41,1,10,4.38,2.9,3.7,5.33,9.94,9.69,12.07.84.41,1.24-.51.94-1.22-1-2.28-3-4.3-4.45-6.37a66.72,66.72,0,0,0-5.13-7.1c-3-3.3-8.22-6.33-12.85-4.93-9.64,2.9-7.58,18.89,2.32,18.79.22,0,.23-.41.13-.52Z"/>
        <path class="cls-2" d="M146.41,434.7C144.48,435.75,144,439,144,441a8.26,8.26,0,0,0,2.29,6.11c.32.32.74.43,1,0a15.09,15.09,0,0,0,3.26-7.91c.09-1.54-.75-5.47-2.92-5.07-.22,0-.3.45-.2.61.47.8,1.25,1.38,1.51,2.32a6.57,6.57,0,0,1-.2,3.26,15.51,15.51,0,0,1-2.73,5.35l1.06,0c-3.14-3.12-.77-6.75-.14-10.24,0-.24-.12-1-.52-.75Z"/>
        <path class="cls-2" d="M148.64,423.29c-2.56.78-3.34,4.29-3.36,6.63,0,1.22.38,5.76,2.25,5.61.21,0,.26-.36.24-.5a7.11,7.11,0,0,0-.76-2,8.27,8.27,0,0,1-.52-3.41,12.42,12.42,0,0,1,2.26-5.84c.06-.1.14-.57-.11-.5Z"/>
        <path class="cls-2" d="M148.38,424c.8,2.29,1.72,4.13.91,6.68a9.2,9.2,0,0,1-3,4c-.35.33-.19,1.63.45,1.33,4.66-2.21,4.88-8.93,2.23-12.66-.37-.51-.74.26-.61.64Z"/>
      </g>
      <g>
        <path class="cls-2" d="M28.16,136.21c3.58-7.87-9.24-16.43-15.76-11.34-11.07,8.63,5.16,24.42,11.16,30.42,1.4,1.4,3.83.44,2.39-1.5-4.17-5.61-9.67-9.26-12.45-16-2-4.79-.86-12.54,6-11.11,4.32.9,7.16,4.92,7.75,9.14.06.42.63,1.05.92.42Z"/>
        <path class="cls-2" d="M27.77,136c3.27-1.73,5.47-5.88,9.76-5.52,8.06.7,6.55,9.88,2.35,13.8-2.61,2.43-6.3,3.88-9.43,5.55-2.19,1.16-5.18,2.14-6,4.63-.23.65.45,1.78,1.21,1.53,2.49-.83,4.79-2.56,7.14-3.77a64.73,64.73,0,0,0,7.56-4.2c3.58-2.54,6.79-7.19,5.93-11.83-1.89-10.2-16.53-10.91-18.69-.48,0,.12,0,.39.2.29Z"/>
        <path class="cls-2" d="M24.63,154.36c-2.32-3.52-8.62-4.15-11.8-1.65-.44.35-.25,1.24.1,1.57a15.63,15.63,0,0,0,7.17,4.25c2.09.46,4.73-.09,5.15-2.49,0-.16,0-.44-.25-.41-.91.13-1.53.81-2.44,1a6.73,6.73,0,0,1-3.47-.36,14.77,14.77,0,0,1-5.33-3.4l.09,1.57a6.67,6.67,0,0,1,5.78-1c1.73.38,3,1.39,4.63,2,.56.2.55-.78.37-1Z"/>
        <path class="cls-2" d="M35.89,158.12c-.83-2.48-3.52-3.75-5.95-4.14-1.81-.29-5.1-.44-5.78,1.71-.05.16-.08.43.13.5.8.25,1.33-.12,2.13-.32a9.07,9.07,0,0,1,3.74-.13c2.21.37,3.72,1.55,5.42,2.84.23.18.35-.32.31-.46Z"/>
        <path class="cls-2" d="M35.56,157.82c-2.1.27-3.58,1-5.82.47a8.06,8.06,0,0,1-5.12-4c-.47-.75-.9.49-.72.93a8.2,8.2,0,0,0,11.77,3.6c.26-.16.33-1.1-.11-1Z"/>
      </g>
      <path class="cls-2" d="M151.27,369.34c10.33,13.26-2.39,45.53,20.12,49.69.9.17.55-1.39.09-1.68-13.38-8.35-9.83-21.14-12.32-34.48-1-5.34-2.86-11.33-7.59-14.41-.41-.28-.46.67-.3.88Z"/>
      <path class="cls-2" d="M147.56,434.61c8.92,2.89,17.64.56,26.38-1.84,10.07-2.77,19-4.33,29.4-3.56,1.11.08.47-1.72-.12-2-8.64-4-18.71-1-27.4,1.53-9.53,2.73-18.62,3.55-28.18,5.35-.18,0-.28.45-.08.51Z"/>
      <path class="cls-2" d="M37.49,323.82C34,335,47.54,344.94,55.63,349.69c12.67,7.44,28.13,8.66,39.53,18.24.37.31.56-.43.42-.69-4.36-7.74-12.47-10-20.43-12.85-15.83-5.68-31.77-13.47-37.5-30.61,0-.11-.13,0-.16,0Z"/>
      <g>
        <path class="cls-2" d="M27.41,308.3c-3.47-7.05-17.68-6.59-20.33.9-1.75,5,1.4,10.33,5.72,12.73,2.88,1.6,6.24,2,9.46,2.33a93.72,93.72,0,0,1,14.52,2.57c1.58.42,1.32-1.72.35-2.3-7.05-4.25-23.42-.34-26.94-9-2.22-5.45,2.21-8.87,7-9.19a14,14,0,0,1,9.47,3c.75.54,1.08-.51.8-1.09Z"/>
        <path class="cls-2" d="M27.31,308.84c.41-4.35,2.79-9,7.13-10.62,10.21-3.75,9,9.09,7,14.18-1.85,4.76-6.33,9.11-4.6,14.44.19.6,1.16,1.18,1.4.28,2.31-8.71,14.61-24,2.33-31-8-4.54-16.91,5.07-13.73,13,.14.34.46,0,.48-.23Z"/>
        <path class="cls-2" d="M25.85,332c.94-3.37,8.19-6.57,11.2-4.38.88.64,1.16-.93.55-1.42-3.67-2.91-12.31.88-12,5.82,0,.16.18.1.21,0Z"/>
        <path class="cls-2" d="M25.86,332.63a9.31,9.31,0,0,0,8.53-.33c1.79-1,3.87-3,3.83-5.16,0-.4-.6-1.41-.93-.62A8.72,8.72,0,0,1,26,331.36c-.61-.22-.66,1.06-.17,1.27Z"/>
        <path class="cls-2" d="M46.9,323.27c-1.31-1.45-4.61-.91-6.17-.24a5.07,5.07,0,0,0-3.16,4.76c0,.24.19.42.39.23,1.19-1.16,1.53-2.68,3.18-3.45a11.72,11.72,0,0,1,5.54-.75c.24,0,.35-.4.22-.55Z"/>
        <path class="cls-2" d="M46.46,323.79A6.81,6.81,0,0,1,41.89,327a5.57,5.57,0,0,1-2.5.13c-.6-.13-1-.48-1.63-.6-.36-.07-.4.61-.32.81.72,2,3.32,1.73,5,1.21a6.5,6.5,0,0,0,4.33-4.59c.08-.25-.17-.41-.3-.14Z"/>
      </g>
      <path class="cls-2" d="M72.22,251.8c-1.76,13.2-7.29,23.62-12.17,35.77-3.51,8.72-5.21,18.46,0,26.7.47.75,1.54.57,1.49-.38-.61-11.48-.2-20.09,4.41-31,4.4-10.39,7.58-19.69,6.85-31.17,0-.49-.49-.37-.55.05Z"/>
      <path class="cls-2" d="M25.09,154.22c-8.61,27,12.2,47,17.56,71.83.19.9,1.68,2.18,2,.64,2-9.83-3-17.39-7.41-25.83-8-15.28-11.25-29.21-11.51-46.47,0-.5-.45-.74-.63-.17Z"/>
      <g>
        <g>
          <path class="cls-2" d="M355.94,46.26c8.43,4.67,19.21-7.56,12.26-15.12-8.64-9.4-23.17,1.48-31,6.41-1.68,1.05.73,3.47,2.25,2.71,5.83-2.93,10.45-7.2,17-8.81,1.93-.48,4.4-1,6.36-.43,6.35,1.86,5,6.58,2.83,9.48A11,11,0,0,1,356,44.84c-.62,0-.45,1.22-.07,1.42Z"/>
          <path class="cls-2" d="M356,45.8c2.42,4.72,6,9.63.38,13.58S345.7,58.31,343.74,53c-1.61-4.44-1.9-11.17-5.54-14.45-.55-.49-1.21-.27-1.24.5-.08,2.29,1.33,4.75,2,7a76.08,76.08,0,0,0,2.69,8.78c1.76,4.2,5.93,8.79,10.84,9,10.17.46,13.13-14.82,3.72-18.47-.23-.08-.26.38-.2.49Z"/>
          <path class="cls-2" d="M338.12,39.08c2.18-.43,3.66-3.26,4.32-5.18a8.19,8.19,0,0,0-.38-6.49A.75.75,0,0,0,341,27a15.05,15.05,0,0,0-5.48,6.25c-.63,1.55-1,5.46,1.24,6,.24,0,.32-.38.29-.53-.28-1.2-.77-2.21-.42-3.44a8.7,8.7,0,0,1,1.43-2.75,16.19,16.19,0,0,1,4-3.74l-1.08-.39c1,2.07.29,4.37-.76,6.26-.68,1.21-1.78,2.14-2.37,3.38-.11.23-.17,1.15.32,1Z"/>
          <path class="cls-2" d="M332.35,49.2c2.61.11,4.42-2.79,5.2-5,.44-1.24,1.52-5.81-.37-6.35-.1,0-.19.07-.24.14-.32.56-.11,1.09-.05,1.7a8.55,8.55,0,0,1-.53,3.91c-.83,2.14-2.4,3.49-4,5-.1.09-.22.55,0,.56Z"/>
          <path class="cls-2" d="M332.74,48.73c0-1-.28-2-.19-2.92a8.1,8.1,0,0,1,1.2-3.34c1.07-1.74,2.7-2.54,4.48-3.37.48-.22.42-1.51-.21-1.44-5.29.57-7.2,7-6,11.3.16.55.68.19.68-.23Z"/>
        </g>
        <path class="cls-2" d="M338.44,39.08c-9.94-5-20.41-6.36-31.46-4.9-14.77,2-27.6,9-42.77,7.78-1.53-.12-.71,2,.26,2.35,10.59,3.38,20-.75,30.22-3.61C310,36.44,323,37.19,338.3,40.07c.42.08.45-.83.14-1Z"/>
      </g>
      <g>
        <g>
          <path class="cls-2" d="M448.56,173.18c1.88,8.57,17.5,8.54,19.35-.11,2.89-13.47-18.16-16.77-26.82-18.73-2.36-.53-1.75,2.4-.06,3,7.11,2.48,16,2.06,21.52,8.14,3.12,3.41,2.95,9-1.88,10.56a10.47,10.47,0,0,1-11.32-3.49c-.41-.52-.88.21-.79.64Z"/>
          <path class="cls-2" d="M448.92,173c-1,2.51-1.08,5.51-2.79,7.74a6.83,6.83,0,0,1-7.44,2.41c-5.48-1.6-5.53-6.78-4.27-11,1.55-5.15,7.67-10.93,6.83-16.46-.07-.47-.86-1.51-1.39-.89-1.81,2.08-2.85,5-4.16,7.43-1.49,2.77-3.29,5.56-4.19,8.6-1.26,4.29-.68,10.14,3.06,13.1,8.24,6.52,17.43-1.85,14.66-11-.06-.2-.26-.07-.31.06Z"/>
          <path class="cls-2" d="M441.15,156c1.88,1,4.75.2,6.54-.68a7.61,7.61,0,0,0,4.1-4.53,1.24,1.24,0,0,0-.87-1.53,14.37,14.37,0,0,0-8.48.71c-1.76.84-3.48,3-2.62,5a.18.18,0,0,0,.28.1c.75-.49.84-1.6,1.53-2.24a6.9,6.9,0,0,1,2.78-1.43,15.16,15.16,0,0,1,6.8-.17l-.87-1.52a6.58,6.58,0,0,1-4.08,3.95c-1.67.67-3.55.45-5.14,1.1-.46.18-.33,1,0,1.2Z"/>
          <path class="cls-2" d="M429.76,159.11c1.86,1.69,4.73,1.2,6.85.29,1.9-.81,4.64-2.62,4.29-5,0-.12-.09-.23-.22-.21-.76.07-1,.81-1.5,1.34a9.1,9.1,0,0,1-2.86,2.14c-2.18,1-4.14.79-6.42.85-.24,0-.28.46-.14.59Z"/>
          <path class="cls-2" d="M430.13,159.16c.62-.55,1-1.25,1.58-1.83a8.18,8.18,0,0,1,3.27-1.85,8.55,8.55,0,0,1,6.18.55c.65.27.7-1.09.31-1.37-4.17-2.93-9.74-.52-11.77,3.71-.12.24,0,1.16.43.79Z"/>
        </g>
        <path class="cls-2" d="M440.92,156.09a50.21,50.21,0,0,0-15.44-22.78c-12.43-10.6-28.21-15.06-39.44-27.15-.73-.8-2-.31-1.53.85,4.26,9.78,13.69,13.43,22.55,18.31,14.59,8,24.35,17.44,33.31,31.36.32.5.66-.26.55-.59Z"/>
      </g>
      <g>
        <g>
          <path class="cls-2" d="M423.35,367.51c-5.83,7.14,5.54,18.84,13.31,14.47,11.5-6.46.54-24.21-3.84-31.65-.7-1.19-3.8-1.69-3,.35,2.33,6.22,6.6,11.09,7.9,17.84.94,4.85-1,14.17-8.18,10.79-4-1.89-5.65-6.91-5.31-11.05,0-.37-.41-1.27-.84-.75Z"/>
          <path class="cls-2" d="M423.7,367.85c-4.77,1.29-10.77,6.14-14.25-.35-3.23-6.05,3.25-10.64,8.23-12.08,3.33-1,12.08-1.28,14.07-4.51.36-.57-.16-1.86-.92-1.79-4.62.42-10,2.15-14.44,3.44S407,356.89,406,362c-2.17,10.34,13.11,16.25,17.88,6.27.05-.09.06-.43-.13-.38Z"/>
          <path class="cls-2" d="M431.49,350.87c1.24,4,7.41,6.22,11,4.65.55-.24.48-1,.22-1.46a15.78,15.78,0,0,0-5.91-6c-1.76-.92-4.72-1.28-5.53,1-.05.14-.06.49.16.51a9.17,9.17,0,0,0,2.11-.37,5.83,5.83,0,0,1,3.57,1A14.4,14.4,0,0,1,441.6,355l.22-1.46a6.47,6.47,0,0,1-5.37-.21c-1.82-.82-2.89-2.19-4.43-3.36-.52-.4-.62.57-.53.87Z"/>
          <path class="cls-2" d="M421.55,344.37c.17,2.58,2.51,4.49,4.69,5.49,1.55.71,5.08,1.87,6.05-.17.06-.12.07-.39-.07-.47-.74-.43-1.33-.23-2.17-.23a9,9,0,0,1-3.75-.86,11.27,11.27,0,0,1-4.39-4.11c-.19-.27-.37.21-.36.35Z"/>
          <path class="cls-2" d="M421.91,344.79c2.21.25,4,0,6,1.18a8,8,0,0,1,3.48,4.75c.25.76,1,.53.94-.25-.45-4.91-5.94-8.24-10.49-6.77-.39.12-.44,1,0,1.09Z"/>
        </g>
        <path class="cls-2" d="M430.93,351.07c8.26-12.83,8.31-27.46,5.87-42.15-1.27-7.65-3.94-15.26-4.82-22.9-.58-5.08.13-10.25-.49-15.31-.1-.82-1.35-2-1.93-.9-3.24,6.37-1.83,16-.16,22.6,5.06,20,5.8,37.92,1,58.14-.06.27.23,1,.53.52Z"/>
      </g>
      <g>
        <g>
          <path class="cls-2" d="M278.8,457.9c-9.32.93-9.07,16.85-.71,19.41,13,4,18-16.12,20.13-24.74.42-1.65-2.34-3.39-3.15-1.56-3.21,7.23-3.31,15.38-9.56,21.16-4.22,3.9-10.42,2.72-10.52-3.69a12.26,12.26,0,0,1,4.24-9.21c.36-.34.16-1.42-.43-1.37Z"/>
          <path class="cls-2" d="M279,458.38c-2.44-1.14-.51-.22-3-1-3.5-1.16-8-6-6.1-10.06,2.4-5.21,8.72-4.61,13.05-2.54s9,7.1,14.06,7.49c1.08.08.47-1.66,0-2-6.39-4.44-20.84-15.55-28.23-7.06-5.94,6.8,1.14,19.53,10.17,15.71.19-.08.22-.45,0-.53Z"/>
          <path class="cls-2" d="M296.86,451.47c-1.37,1.65-.6,4.87.09,6.68a8.18,8.18,0,0,0,4.55,5,.58.58,0,0,0,.77-.44,16.32,16.32,0,0,0,.11-8.24c-.4-1.41-2.7-5.52-4.67-3.94-.15.13-.27.49-.1.65.62.56,1.37.72,2,1.26a5.38,5.38,0,0,1,1.54,3.19,14.83,14.83,0,0,1-.33,6l.77-.44c-4.06-1.6-3.58-5.87-4.13-9.37,0-.23-.36-.65-.61-.35Z"/>
          <path class="cls-2" d="M294.31,440.18c-1.65,1.48-1.4,4.3-.88,6.23.35,1.29,2.62,6.57,4.58,5.41a.5.5,0,0,0,.16-.56c-.86-1.66-2.58-2.55-3.34-4.42a10.81,10.81,0,0,1-.24-6.37c0-.18-.06-.48-.28-.29Z"/>
          <path class="cls-2" d="M294.34,441c1.3,1.46,2.55,2.31,3.19,4.26.72,2.24.2,4.16-.75,6.24-.16.36.09,1.76.65,1.13,3.4-3.84,1.3-10.28-2.75-12.62-.47-.28-.56.75-.34,1Z"/>
        </g>
        <path class="cls-2" d="M296.24,451.81c16.17-3.65,26.95-15.51,36-28.7,3.85-5.62,6.95-12,11.18-17.31,3-3.76,7-6.62,10.08-10.34.68-.83-.39-2.47-1.42-2-9.36,3.88-14.49,13.93-19.69,21.87C322.09,431,311.75,440.77,296,450.87c-.3.19-.26,1.05.2.94Z"/>
      </g>
      <g>
        <path class="cls-2" d="M163.7,19.93C173.29,17.45,169.64.66,160.13.5c-12.68-.2-13.79,19.19-14.54,28-.12,1.44,2.74,3,3.22,1.2,2-7.22.83-14.64,5.07-21.34,2.43-3.85,8.41-7.33,11.3-1.82,2,3.85.58,8.82-1.92,12-.24.32-.21,1.53.44,1.37Z"/>
        <path class="cls-2" d="M163.54,19.45c5,1.48,12.55.75,11,8.85-1.13,5.87-7.81,6.69-12.59,5.27-4.28-1.26-10.38-6-14.95-5.12-.92.18-.72,1.64,0,2a81.48,81.48,0,0,0,16.38,6.3c4.16.94,9.7.19,12.4-3.48,5.55-7.57-3.79-19.71-12.21-14.34-.14.09-.25.46,0,.53Z"/>
        <path class="cls-2" d="M147.07,29.19c1-1.82-.21-4.78-1.12-6.42a8.12,8.12,0,0,0-5.42-4.28c-.39-.08-.59.43-.61.72a16.12,16.12,0,0,0,1.35,8.31c.66,1.33,3.54,4.72,5.13,2.79a.46.46,0,0,0,0-.63c-.78-.6-1.76-.58-2.56-1.2a6,6,0,0,1-1.73-2.71,14.47,14.47,0,0,1-.66-6l-.61.72c4.2.87,4.55,5.25,5.59,8.58.1.3.48.42.65.11Z"/>
        <path class="cls-2" d="M151.46,39.92c1.51-2,.52-5.15-.57-7.11-.65-1.17-3.34-5-4.95-3.73a.48.48,0,0,0-.13.62,6.5,6.5,0,0,0,1.8,1.41,8.57,8.57,0,0,1,2.4,2.72,10.71,10.71,0,0,1,1.12,5.94c0,.23.18.36.33.15Z"/>
        <path class="cls-2" d="M151.38,39.17c-1.42-1.18-2.8-1.8-3.8-3.52-1.25-2.16-1.1-4.23-.45-6.55.13-.46-.34-1.62-.81-.85-2.59,4.25.28,10.38,4.71,11.91.48.17.64-.74.35-1Z"/>
      </g>
      <path class="cls-2" d="M147.71,28.78c-26.95,11.39-24,42.71-40.63,62.42-.64.76.43,2.65,1.41,2,10.61-6.41,13.29-21.69,17.32-32.58,4.81-13,12.42-21.35,22.1-30.94.2-.2.28-1.15-.2-.95Z"/>
      <path class="cls-2" d="M132,114.39c-12.1,12.78-33.08,10.81-48.51,15.77-8.1,2.6-21.08,9-18.72,19.26.17.75,1.92,2.11,2.39.9,6.81-17.53,24.58-17.54,40.34-21,8-1.78,23-4.62,25.07-14.23.06-.27-.21-1-.57-.67Z"/>
      <g>
        <g>
          <path class="cls-2" d="M280,88.47c8.48,4.58,19.12-7.75,12.12-15.24-8.72-9.33-23.15,1.69-31,6.72-1.67,1.07.73,3.49,2.24,2.71,6.06-3.12,10.75-7.61,17.64-9.18,6.15-1.4,13.11,2.79,8.58,9.11A11,11,0,0,1,280.07,87c-.62,0-.46,1.22-.08,1.43Z"/>
          <path class="cls-2" d="M280,88c1.84,3.63,4.79,7.12,2.15,11.4-4.21,6.81-11.62,2.58-14-3.35-1.84-4.57-2.09-11.76-6-15.14-.55-.48-1.21-.27-1.24.51-.07,2.28,1.37,4.73,2,6.94a78.8,78.8,0,0,0,2.8,8.75c1.76,4.1,5.49,8.09,10.11,8.8,10,1.51,13.4-15,4.34-18.39-.22-.09-.26.37-.2.48Z"/>
          <path class="cls-2" d="M262.1,81.48c2.17-.45,3.63-3.29,4.26-5.22a8.17,8.17,0,0,0-.43-6.48.75.75,0,0,0-1.08-.39,15,15,0,0,0-5.45,6.4c-.58,1.51-.84,5.4,1.33,5.86.24,0,.33-.37.29-.53-.27-1.11-.79-2-.53-3.18a8,8,0,0,1,1.3-2.77,16.27,16.27,0,0,1,4.08-4l-1.07-.39c1.06,2.06.35,4.36-.69,6.27-.69,1.26-1.79,2.24-2.39,3.53-.11.23,0,1,.38.93Z"/>
          <path class="cls-2" d="M256.44,91.66c2.61.08,4.39-2.83,5.14-5,.43-1.24,1.47-5.84-.43-6.35-.09,0-.19.07-.23.14-.31.56-.1,1.09,0,1.7a8.58,8.58,0,0,1-.58,4.16c-.83,2-2.32,3.34-3.87,4.8-.1.08-.22.54,0,.55Z"/>
          <path class="cls-2" d="M256.83,91.19c0-1-.3-2-.23-2.91a8.23,8.23,0,0,1,1-3.12c1.05-1.9,2.7-2.79,4.56-3.66.48-.22.42-1.53-.2-1.44-5.28.72-7.16,6.94-5.85,11.36.16.54.69.2.68-.23Z"/>
        </g>
        <path class="cls-2" d="M262.78,79.27c-26.61-.77-39.87-42.26-69-33.95-1.52.43,0,2.68,1.09,2.67,19.48-.21,29.36,12.86,43.63,23.34,5.61,4.12,17.13,13,24.39,9.1.37-.2.42-1.14-.11-1.16Z"/>
      </g>
      <g>
        <g>
          <path class="cls-2" d="M365,144.13c.87,9.19,17.75,9.91,19.53.65,2.46-12.77-16.72-17.37-25.35-20.16-2-.65-2,2.13-.48,2.83,7.05,3.32,17.12,3.62,21.58,11.2,5.82,9.88-9.68,12.34-14.4,5-.42-.66-.94-.1-.88.49Z"/>
          <path class="cls-2" d="M365.35,143.9c-1.58,2.77-2.11,5.93-4.89,7.9-3.73,2.66-9.46,1.38-10.49-4.19-.48-2.57.64-5.28,1.78-7.5,2.11-4.1,7.95-9,7.59-13.88,0-.54-.72-1.84-1.41-1.16-2,1.93-3.3,4.77-4.84,7.08-2,3-4.49,6.07-5.47,9.59-1.07,3.87-.66,9.13,2.58,11.92,7.31,6.31,17.19-1.07,15.45-9.69,0-.17-.2-.24-.3-.07Z"/>
          <path class="cls-2" d="M359.15,126.23c3.53,2.22,9.56-.4,11.09-4,.23-.54.08-1.49-.59-1.68a15.4,15.4,0,0,0-8.08-.31c-2.1.57-4.34,2.57-3.58,5a.18.18,0,0,0,.28.1c.77-.43,1-1.48,1.68-2.05a7,7,0,0,1,3-1.23,15.18,15.18,0,0,1,6.6.45l-.58-1.68a6.59,6.59,0,0,1-4.32,3.63c-1.79.58-3.72.16-5.43.68-.39.11-.37,1-.07,1.14Z"/>
          <path class="cls-2" d="M347.59,128.32c1.85,2,5,1.62,7.33.74,1.8-.69,4.29-2.11,4.17-4.32,0-.15,0-.32-.23-.31-.8,0-1.16.79-1.72,1.3a8.77,8.77,0,0,1-3.17,1.83c-2.14.72-4,.35-6.19.17-.28,0-.34.43-.19.59Z"/>
          <path class="cls-2" d="M348,128.38c1.64-1.2,2.47-2.41,4.56-3a8.45,8.45,0,0,1,6.73,1c.63.33.65-1.08.3-1.37-3.86-3.24-9.67-1.44-12,2.63-.16.27,0,1.11.44.79Z"/>
        </g>
        <path class="cls-2" d="M360.83,125.18c-13.05-15.32,1.58-43.77-18.59-55-1.1-.62-1.93.61-1.35,1.58,3.72,6.23,7.48,11.28,8.47,18.7.8,5.93.63,11.91,1.79,17.81s3,15.26,9.31,17.9c.48.2.58-.74.37-1Z"/>
      </g>
      <g>
        <g>
          <path class="cls-2" d="M402.49,261.66c-5.05,7.57,7.24,18.24,14.52,13.21,11.06-7.64-2-24.42-7.1-31.45-1-1.37-3.6-.76-2.64,1.11,3,5.81,7.61,10.06,9.51,16.55,1.12,3.83,1.64,9.3-2.67,11.48-6.24,3.15-10.74-5.32-10.77-10.15,0-.3-.46-1.34-.85-.75Z"/>
          <path class="cls-2" d="M402.84,262c-4.67,1.5-11.24,7.18-14.87-.12-2.49-5,3-9.69,7-11.38C398.4,249,407.41,248,409,244.41c.25-.54-.11-1.93-.93-1.79-2.42.42-4.73,1.67-7.08,2.46-2.61.86-5.3,1.64-7.83,2.73-4.24,1.82-8.7,5.93-8.68,11,0,9.64,15.17,12.94,18.45,3.61,0-.09.07-.45-.13-.39Z"/>
          <path class="cls-2" d="M408.81,244.28c1.7,3.79,7.86,5.55,11.37,3.59.64-.36.44-1.18.07-1.67a15.89,15.89,0,0,0-5.92-5c-1.91-.87-5.15-1.17-5.85,1.37,0,.12-.07.51.15.51,1.06,0,1.87-.66,3-.65a7,7,0,0,1,3.3,1,15.34,15.34,0,0,1,4.53,4.15l.08-1.67a6.62,6.62,0,0,1-5.67.27c-1.81-.65-3-1.93-4.59-2.84-.46-.26-.54.7-.43.93Z"/>
          <path class="cls-2" d="M398.29,238.85c.38,2.24,2.3,3.77,4.28,4.66,1.76.78,5.93,1.93,6.94-.42.05-.12.07-.41-.08-.48-.79-.37-1.34-.1-2.21,0a9,9,0,0,1-3-.24c-2.47-.63-3.89-2.1-5.59-3.9-.18-.19-.34.28-.32.4Z"/>
          <path class="cls-2" d="M398.64,239.24c2,0,3.63-.4,5.63.36a8,8,0,0,1,4.54,4.71c.35.83,1,0,.86-.62a8.24,8.24,0,0,0-11.05-5.54c-.34.15-.47,1.08,0,1.09Z"/>
        </g>
        <path class="cls-2" d="M410.56,244.63c.79-18.11,28.73-36.07,18.94-54.71-.37-.72-2.19-1.65-2.35-.26-.89,7.72-.69,13.64-4.75,20.67-2.73,4.72-6.19,9-8.75,13.81-3.22,6-7.42,14.34-3.75,20.91.27.49.64-.12.66-.42Z"/>
      </g>
      <g>
        <g>
          <path class="cls-2" d="M332.92,361.67c-9.58.75-9.25,17.2-.48,19.53,12.63,3.35,17.77-15.94,20-24.57.44-1.67-2.29-3.37-3.15-1.57-3.42,7.16-3.51,15.3-9.9,21-4.19,3.75-10.17,2.64-10.43-3.48a12.16,12.16,0,0,1,4.39-9.54c.37-.35.15-1.41-.44-1.37Z"/>
          <path class="cls-2" d="M333.13,362.17c-2.75-1.38-6.2-1.85-8.19-4.43-2.42-3.13-1.05-8.34,2.25-10.05,2.45-1.27,6.19-.89,8.63.1,5.15,2.07,9.73,8,15.4,8.51,1.09.1.45-1.66,0-2-6.1-4.41-21.19-16.22-28.29-7.26-5.08,6.41,1.88,18.92,10.11,15.63.14-.06.23-.43.08-.51Z"/>
          <path class="cls-2" d="M351.09,355.53c-1.4,1.63-.67,4.87,0,6.69a8.19,8.19,0,0,0,4.49,5,.58.58,0,0,0,.77-.44,16.35,16.35,0,0,0,.26-8.1c-.37-1.45-2.62-5.72-4.64-4.13-.16.12-.27.48-.1.64.61.57,1.37.74,2,1.3a5.33,5.33,0,0,1,1.48,3.22,14.64,14.64,0,0,1-.44,6l.78-.44c-4-1.66-3.47-5.94-4-9.44,0-.23-.36-.64-.61-.35Z"/>
          <path class="cls-2" d="M348.73,344.2c-1.75,1.5-1.47,4.5-.9,6.49.36,1.27,2.52,6.3,4.42,5.21a.48.48,0,0,0,.15-.56,6.79,6.79,0,0,0-1.49-1.68,8.16,8.16,0,0,1-1.86-3.06,11.13,11.13,0,0,1-.05-6.11c0-.18-.06-.48-.27-.29Z"/>
          <path class="cls-2" d="M348.75,345c1.23,1.42,2.55,2.4,3.12,4.32.67,2.27.13,4.14-.86,6.23-.18.36.09,1.74.65,1.12,3.47-3.79,1.43-10.24-2.57-12.66-.47-.29-.55.75-.34,1Z"/>
        </g>
        <path class="cls-2" d="M351.52,357.85c9.57-6.23,21.24-6.69,32.25-7.73,8.32-.79,18.65-3,22.73-11.18.55-1.12-1-3-2.12-2.09-6.42,4.83-12.18,8.42-20.37,9.33-5.93.66-11.88.76-17.73,2.11-5.28,1.22-13.53,2.79-15.2,8.69-.06.2,0,1.15.44.87Z"/>
      </g>
      <g>
        <g>
          <path class="cls-2" d="M231,385.32c-8-5.54-19.94,5.61-13.74,13.8,7.68,10.15,23.32.82,31.67-3.16,1.61-.76-.52-3.35-1.91-2.85-6.41,2.3-11.66,6.24-18.66,7-5.57.64-12.63-3.1-8.2-9.35a10.82,10.82,0,0,1,10.63-4.06c.73.13.62-1.13.21-1.42Z"/>
          <path class="cls-2" d="M231,385.84c-1.78-4.62-3.76-9.71,1-13.23,6.69-4.92,11,3.41,12.11,8.75.9,4.28.66,10.37,3.8,13.7.38.41,1.09.39,1.2-.25.42-2.26-.71-4.83-1.09-7.08a75.91,75.91,0,0,0-1.71-9c-1.26-4.27-4.22-8.51-8.62-10-10-3.37-15.44,12.31-7,17.52.21.13.32-.27.27-.41Z"/>
          <path class="cls-2" d="M247.93,394.45c-2.24.22-4.05,2.93-4.89,4.81a8,8,0,0,0-.31,6.17c.12.33.57,1,1,.74,2.57-1.38,5.25-3.41,6.48-6.14.65-1.43,1-4.9-.89-5.59-.2-.07-.31.32-.3.44.07,1,.52,1.73.28,2.73a7.41,7.41,0,0,1-1.61,2.9,15.61,15.61,0,0,1-4.64,3.71l1,.73a6.32,6.32,0,0,1,.91-5.57c.91-1.46,2.38-2.45,3.25-3.88.16-.26.15-1.1-.32-1.05Z"/>
          <path class="cls-2" d="M254.81,385c-2.54-.37-4.6,2.17-5.63,4.19-.69,1.35-2.15,5.39-.39,6.51a.19.19,0,0,0,.24-.05,1.61,1.61,0,0,0,.28-1.11,10.33,10.33,0,0,1,.76-4c1-2.28,2.82-3.48,4.71-4.95.12-.1.3-.56,0-.6Z"/>
          <path class="cls-2" d="M254.4,385.49c-.09.77,0,1.53,0,2.29a8,8,0,0,1-1.8,3.91,9.31,9.31,0,0,1-4.74,2.74c-.55.18-.39,1.45.2,1.45,5.24,0,7.89-6,7.09-10.48-.11-.63-.64-.46-.71.09Z"/>
        </g>
        <path class="cls-2" d="M247.13,396.57c19.74,3.13,29.67,31.58,51.52,27.11,1.4-.29.15-2.5-.77-2.64-9.14-1.39-15.36-4.21-22.17-10.34-4.44-4-8.8-8-14-11.06-4-2.4-10.07-6.64-14.73-4.23-.41.21-.39,1.08.11,1.16Z"/>
      </g>
      <path class="cls-3" d="M189.68,190.48c-3.4,14.1-9.3,23.5-17,27.4a18.48,18.48,0,0,1-9.8,1.8,29,29,0,0,1-2.4,5c5.1,2.3,10.8,4.6,14.6,4.6a4.18,4.18,0,0,0,3.5-2.3,2.58,2.58,0,0,1,3.4-1.2,2.44,2.44,0,0,1,1.2,3.4,9.2,9.2,0,0,1-8.1,5.2c-5,0-11.7-2.7-17.7-5.5-3.6,3.8-8.2,5.5-14.5,5.5-4.5,0-7.5-1-9.1-3.1a5.75,5.75,0,0,1-1.1-5.1,9.43,9.43,0,0,1,5.1-5.9,15.48,15.48,0,0,1,13.3,0c1.4.6,3,1.4,4.8,2.2.6-1.1,1.3-2.4,1.9-3.8a27.73,27.73,0,0,1-2.6-1c-9.8-4.3-14.4-12.9-12.2-22.5,1.7-7.3,6.1-13.4,11.8-16.2a12.81,12.81,0,0,1,11.1-.6,2.59,2.59,0,0,1,1.3,3.3,2.56,2.56,0,0,1-3.4,1.3,8,8,0,0,0-6.7.5c-4.3,2.2-7.8,7.1-9.1,12.8-1.7,7.3,1.6,13.4,9.2,16.7a11.72,11.72,0,0,0,2.4.9,142.49,142.49,0,0,0,3.9-14.2c4.8-20.4,10-31.91,16.1-34.91a7.44,7.44,0,0,1,6.5-.3C192.08,167.17,193.28,175.58,189.68,190.48Zm-49.6,34.4a3.9,3.9,0,0,0-2.4,2.4c-.2.6,0,.8.1.8.1.2,1.1,1.2,5.1,1.2s7-.7,9.5-2.8c-1.2-.5-2.3-1.1-3.4-1.5a11.6,11.6,0,0,0-4.8-1.1A8,8,0,0,0,140.08,224.88Zm41.8-55.61c-2.6,1.3-7.8,7.11-13.5,31.61-1.2,5.2-2.3,9.8-3.6,13.8a12.54,12.54,0,0,0,5.6-1.4c6.3-3.1,11.3-11.5,14.4-24.1,1-4.1,3.9-18-.7-20a3.25,3.25,0,0,0-1-.21A2.66,2.66,0,0,0,181.88,169.27Z"/>
      <path class="cls-3" d="M346.29,233.57a2.5,2.5,0,0,1-2.5,2.6,13,13,0,0,0-2.6.3c-7.31,1.7-12.41,11.1-16.91,30.3-3.7,15.7-6.4,26.3-12.1,31.3,6.6,1.2,13.4,2.5,17.2,1.4a2.45,2.45,0,0,1,3.1,1.7,2.53,2.53,0,0,1-1.69,3.1c-5,1.5-12.21.2-19.81-1.3-15.1-2.9-22.1-3.2-23.4,2.7a2.65,2.65,0,0,1-2.5,2,1.27,1.27,0,0,1-.6-.1,2.5,2.5,0,0,1-1.9-3c1.2-5.4,5.2-8.2,11.9-8.6a34,34,0,0,1,7.7.4c.1-.1.2-.1.4-.1,8.3,0,11.2-6.9,16.7-30.6,2.6-11.1,5.3-18.7,8.5-24.1a112.58,112.58,0,0,0-10.9,6.3c-11.5,7.5-19.5,15.6-20.8,21.2-1.6,6.9,1.2,11.5,9.2,14.9a2.75,2.75,0,0,1,1.3,3.4,2.56,2.56,0,0,1-3.4,1.3c-10.2-4.4-14.2-11.4-12.1-20.7,2.4-10,16.9-20.4,23-24.4,8-5.2,18.4-10.5,25.81-12a15.94,15.94,0,0,1,3.9-.5A2.48,2.48,0,0,1,346.29,233.57Z"/>
      <path class="cls-3" d="M237.72,273.32a.73.73,0,0,1-.5-.19.72.72,0,0,1,0-1l16.35-17.27L235,270.6a.73.73,0,0,1-1-.06.74.74,0,0,1,0-1l15.81-15.81-17.18,14.91a.72.72,0,0,1-1-.05.73.73,0,0,1,0-1l17.87-17.87-19.38,16.78a.72.72,0,0,1-1-1.06l17.76-17.76-19.1,16.73a.71.71,0,0,1-1-.05.73.73,0,0,1,0-1l20.15-20.15-21.78,18.74a.72.72,0,0,1-1-.05.73.73,0,0,1,0-1l22.3-22.65-24.37,20.63a.72.72,0,0,1-1-1.06l21.22-21.23-23,19.26a.73.73,0,0,1-1-.07.72.72,0,0,1,0-1l20.24-19.94-21.92,17.78a.72.72,0,0,1-1-.08.73.73,0,0,1,0-1l13.86-13.59-15.25,11.36a.73.73,0,0,1-1-.11.74.74,0,0,1,.06-1l13.56-13L212.4,245.75a.72.72,0,0,1-1-.13.73.73,0,0,1,.09-1L225,232.68l-13.65,8.87a.73.73,0,0,1-.86-1.17l11.81-9.74-11,6.46a.72.72,0,0,1-1-.21.72.72,0,0,1,.12-1l7.95-6.78-4.85,2.75a.73.73,0,1,1-.72-1.26l11.47-6.51a.74.74,0,0,1,1,.22.73.73,0,0,1-.13,1l-7.43,6.33,11.74-6.89a.73.73,0,0,1,1,.21.72.72,0,0,1-.13,1l-9,7.42,11.21-7.28a.71.71,0,0,1,1,.17.73.73,0,0,1-.09,1L224,235.57l10.86-7.88a.71.71,0,0,1,1,.12.73.73,0,0,1-.05,1L223,241l14.32-10.66a.73.73,0,0,1,1,.11.72.72,0,0,1-.05,1l-10.51,10.31,21.66-17.56a.72.72,0,0,1,1,1.08l-18.17,17.9L254,224.92a.73.73,0,0,1,1,.07.72.72,0,0,1,0,1l-20.43,20.43,23.22-19.66a.73.73,0,0,1,1,1.07l-21.2,21.53,23.18-20a.73.73,0,0,1,1,.06.74.74,0,0,1,0,1l-18.28,18.28L262.5,232a.73.73,0,0,1,1,1.06l-19,19,19.38-16.77a.72.72,0,0,1,1,1.06l-17.67,17.68,17.18-14.91a.73.73,0,0,1,1,1.06l-17.82,17.82,15.25-12.93a.73.73,0,0,1,1,1.05l-25.5,26.92A.7.7,0,0,1,237.72,273.32Z"/>
    </g>
  </g>
</svg>
